<svg xmlns="http://www.w3.org/2000/svg" viewBox="0 0 607.29 172.68"><defs><style>.cls-1{fill:#133554;}.cls-2{fill:#7cad3e;}</style></defs><g id="Layer_2" data-name="Layer 2"><g id="Logo_Full_Blue"><path class="cls-1" d="M138.32,62.5,75.82,0,13.68,62.54l-.11.12C-3.7,80.82-4.6,109.4,11.52,127.72a47.36,47.36,0,0,0,33.3,15.7,48.84,48.84,0,0,0,30.42-8.71l4.28,4.39L56.45,162.16,67,172.68l33.44-33.45L81.16,119.48l0,0a32.64,32.64,0,0,1-8.64-15.78h31.79V88.79H72.48a32.32,32.32,0,0,1,8.94-16.07,33.07,33.07,0,0,1,46.41.32h0l10.52-10.51ZM71,62.1A47.23,47.23,0,0,0,57.35,88.79H35.13v14.87H57.36a47.37,47.37,0,0,0,7.88,19.83,34.2,34.2,0,0,1-19.73,5.08A32.48,32.48,0,0,1,22.68,117.9C11.62,105.32,12.33,85.6,24.29,73l51.56-51.9,27.47,27.47A47.6,47.6,0,0,0,71,62.1Z"/><path class="cls-1" d="M227,56.46H182.36V86.12h43.13v16.65H182.36v43H165V39.82h62Z"/><path class="cls-1" d="M257.8,55.63A10.44,10.44,0,0,1,240,48.29,10.19,10.19,0,0,1,243,41a10.42,10.42,0,0,1,14.83,0,10.16,10.16,0,0,1,3,7.34A10,10,0,0,1,257.8,55.63Zm-15.51,90.12V70.08h16.34v75.67Z"/><path class="cls-1" d="M317.34,68.11q13,0,21,8.33t8,22.85v46.46H330.06V101q0-8.48-4.54-13T313.11,83.4q-8.62,0-13.93,5.37t-5.29,16.42v40.56H277.54V70.08h16.35v9.69Q301.3,68.12,317.34,68.11Z"/><path class="cls-2" d="M423.88,70.08h16.34v75.67H423.88v-10.9q-9.24,12.87-26.48,12.86a35.51,35.51,0,0,1-26.64-11.57q-11-11.58-11-28.23t11-28.29A35.6,35.6,0,0,1,397.4,68.11q17.25,0,26.48,12.72Zm-41,55.16a24.66,24.66,0,0,0,34.2,0,23.64,23.64,0,0,0,6.81-17.33,23.62,23.62,0,0,0-6.81-17.32,24.66,24.66,0,0,0-34.2,0,23.62,23.62,0,0,0-6.81,17.32A23.64,23.64,0,0,0,382.87,125.24Z"/><path class="cls-2" d="M489,147.71q-17.1,0-28.53-11.5T449,107.91Q449,91,460.42,79.54T489,68.11a39.2,39.2,0,0,1,20.12,5.3,34.09,34.09,0,0,1,13.62,14.23l-14.07,8.17a19.4,19.4,0,0,0-7.79-8.55,23.08,23.08,0,0,0-12-3.1A22.62,22.62,0,0,0,472.07,91a23.15,23.15,0,0,0-6.73,17,23.14,23.14,0,0,0,6.73,17,22.59,22.59,0,0,0,16.73,6.81,23.21,23.21,0,0,0,12-3.18,20.65,20.65,0,0,0,8.09-8.47L523,128a36,36,0,0,1-13.93,14.38A39.2,39.2,0,0,1,489,147.71Z"/><path class="cls-2" d="M546.45,114.87a20.81,20.81,0,0,0,8.32,13.25q6.51,4.6,15.89,4.61,13,0,19.53-9.38l13.46,7.87q-11.19,16.5-33.14,16.49-18.46,0-29.81-11.27t-11.35-28.53q0-16.93,11.2-28.37T569.3,68.11q16.65,0,27.32,11.66t10.67,28.29a51.16,51.16,0,0,1-.61,6.81Zm-.15-13.31h44.49q-1.66-9.23-7.64-13.92a22,22,0,0,0-14-4.7q-9.07,0-15.13,5A22.51,22.51,0,0,0,546.3,101.56Z"/></g></g></svg>